<?xml version="1.0" encoding="utf-8"?>
<!-- Generator: Adobe Illustrator 25.2.2, SVG Export Plug-In . SVG Version: 6.00 Build 0)  -->
<svg version="1.1" id="Layer_1" xmlns="http://www.w3.org/2000/svg" xmlns:xlink="http://www.w3.org/1999/xlink" x="0px" y="0px"
	 viewBox="0 0 98 50" style="enable-background:new 0 0 98 50;" xml:space="preserve">
<style type="text/css">
	.st0{clip-path:url(#SVGID_2_);}
	.st1{fill-rule:evenodd;clip-rule:evenodd;fill:#FFE500;}
	.st2{fill-rule:evenodd;clip-rule:evenodd;fill:#FFFFFF;}
	.st3{fill:#FFE500;}
	.st4{fill:none;stroke:#000000;stroke-miterlimit:10;}
	.st5{fill:#FFFFFF;}
</style>
<g>
	<defs>
		<rect id="SVGID_1_" width="98" height="50"/>
	</defs>
	<clipPath id="SVGID_2_">
		<use xlink:href="#SVGID_1_"  style="overflow:visible;"/>
	</clipPath>
	<g class="st0">
		<path class="st1" d="M51.2,7.3c0.3-0.1,0.3,0.2,0.3,0.5c-0.1,0-0.2-0.2-0.3-0.2C51.2,7.5,51.2,7.4,51.2,7.3z"/>
		<path class="st1" d="M35,11.7c0.2,0.6,0.4,1.2,0.9,1.4c-0.3,0.4-0.7-0.4-0.9-0.6c-0.5-0.1-1.5,0.3-1.3-0.5
			c0.4-0.1,0.3,0.3,0.6,0.3C34.1,11.7,34.6,11.8,35,11.7z"/>
		<path class="st1" d="M44.9,5.1C44.9,5.1,44.9,5.1,44.9,5.1C44.9,5,44.9,5,44.9,5.1z M70.9,28.6c1-1,0.4-2.2,0.9-3.6
			c-0.2-0.2-0.7-0.2-1.1-0.2c-0.2,0.3-0.3,0.8-0.8,0.8c-0.9-0.5-1.6-1.2-2.1-2c0.8-2,3-3.4,2.9-5.8c-0.5-0.1-0.7,0.1-1.1,0.2
			c-0.8,1.7-1.9,3.3-2.9,4.9c-0.3-0.2-0.5-0.5-0.6-0.9c0.9,0.1,1-0.7,1.3-1.3c-0.1-0.5-0.6-0.7-0.8-1.1c0.1-0.3,0.4-0.5,0.5-0.8
			c-0.5-0.1-0.3,0.6-0.6,0.6c0-0.3-0.4-0.3-0.5-0.6c0.6-0.3,0.6-0.8,0-0.8c0.2-0.2,0.6-1,0.3-1.3c0,0.1-0.4,0.7-0.5,0.3
			c0.5-0.8,1.3-1.2,1.6-2.2c-1.7,0.7-1.7,1.2-2.7,2.4c-0.1-0.2-1.2-0.2-1.4-1.1c1.3-1.6,2.8-3,4-4.7c-0.1-0.4-0.5-0.5-1.1-0.5
			c-0.5,0.7-1,1.6-1.7,2c0-0.2,0.1-0.6-0.2-0.6c-0.3,1.2-1.4,1.8-1.9,2.8c-0.3-0.3-0.7-0.4-0.8-0.9c1.7-2.3,4.2-3.9,5.6-6.6
			c-0.5,0.1-0.5-0.3-0.9-0.2c-2.2,2.5-4.8,4.5-6.7,7.2c0-0.2-0.3-0.1-0.3-0.3c0.4-0.7,1.8-1.8,2.1-2.7c-0.6,0.5-1.3,1.7-1.9,1.7
			c1.5-2.1,3.4-3.8,4.4-6.3c-2.4-1.2-3.6,4.1-5.2,4.4c-0.1,0.6-0.4,1-0.5,1.3c-0.8-0.4-0.1-0.5-0.9-0.5c0.2-0.3,0.9-0.7,0.5-1.1
			c-0.3,0.3-0.4,0.7-0.9,0.8c-0.5-0.3,0.1-0.6-0.2-0.8c-0.1,0.5-0.3,0.1-0.8,0.2c-0.1-1.1-1.1-1.3-1.4-2.2c2.4-3.1,5.1-5.9,7.3-9.2
			c-0.5,0.1-0.6-0.2-1-0.2c0,0-0.1,0-0.1,0c-1.4,1.3-2.2,3.3-3.7,4.6C57,3.5,57.9,3.2,58,2.2c-0.5,0.1-0.3-0.4-0.6-0.5
			c-0.8,0.8-2.8,3-3.7,4.2c-0.6,0.9-0.7,2.1-1.9,0.9c0.2-1-0.9-0.4-0.5-1.1c-0.5,0.5-1.1-0.8-0.9-0.3c0.7,1,1.5,1.5,1.7,2.5
			c-0.4,0-0.2-0.5-0.5-0.5c-0.3,0.6,0.1,0.7,0.3,0.8c-0.1,0.4-0.4,0.7-0.9,0.6c-0.4-0.6-0.9-1.8-1.6-1.6c0.8,0.7,1.2,1,1.7,2
			c-0.6,0.9-1.1,1-1.7,0.2c-0.1-0.4,0.7-0.7,0.3-0.9C49.6,9,49.5,9.3,49,9.3c-0.4-1.1-2.1-1.3-1.7-2.7C46.2,7,45.7,5.2,45,5.1
			c0.2,0.1,0.1,0.7-0.1,0.6c-0.3-0.4-0.8-1.3-1.3-0.9c0.6,0.2,0.6,1,1.1,1.3c-0.6,1.4-2,1.7-2.5,2.8c0.2,0.6,0.8,0.7,0.9,1.4
			c-0.2,0.1,0,0.6-0.3,0.6c0.3-1-1.2-0.2-0.9-1.3h-0.8C41,10,41.4,10,41.2,10.4c-0.4,0-0.2-0.5-0.5-0.5c-0.3,0.3,0.1,0.3,0.2,0.6
			c-0.2,0.1-0.4,0.2-0.6,0.3c0-0.1-0.3-0.8-0.5-0.3c0.6,0.7,1.5,1.1,1.7,2.2c-0.9-0.5-1.3-1.6-2.2-2c-0.4,0.4,0.2,0.5,0.2,0.9
			c-0.5-0.4-0.7-0.2-1.3,0c-0.5-0.6-1-1.3-2.1-1.4c-0.3,0-0.2,0.4-0.6,0.3v1.1c2.1,1,3.4,2.8,4.8,4.6c-0.7-0.5-0.8,0.8-1.4,0
			c0,0.6,0.8,0.9,0.2,1.3c-1.3-0.8-2-2.2-3.3-3c-0.3,0-0.1,0.6-0.5,0.6c0.3,0.5,0.7,1.6,1.4,1.3c0.6,0.9,0.7,1.4,1.4,2.2
			c0,0.2-0.2,0.3-0.2,0.6c-2.8,1.6-4.6,4.3-7.1,6.1c0-0.5,1.1-0.6,0.6-1.1c-0.1,0.3-0.7,0.8-0.8,0.5c0-0.5,0.5-1.1,0.3-1.3
			c0,0.2-0.7,0.7-0.8,0.3c0.8-0.7,2.2-1.7,2.2-2.7c-2.1,3.1-4.8,2.7-6,6c0.7-0.5,0.8-1.7,1.7-2c-0.4,1-1.3,1.5-1.6,2.7
			c0.9-0.3,0.8-1.7,1.7-2c0,0.4,0.4,0.5,0.8,0.6c0.2-0.4,0.5-0.7,0.9-0.8c-0.7,0.7-1.5,2.1-2.2,2.2c0.1-0.6,1-0.9,0.6-1.6
			c-1.7,1.7-0.2,3.1,1.3,3.9c0.3-0.2,1.3-1.5,2.1-1.3c-0.7,0.4-1.3,0.8-1.6,1.6c0.6,0.7,1.7,1.3,2.4,2.2c-0.3,1,1,1.7,1.9,1.6
			c0,0.4-0.5,0.2-0.5,0.5c0.9,0.3,1.9,0.5,1.9,1.7c-0.6,0.7-1.4,1.6-1.5,2.5h4.1c0-0.2,0-0.3,0-0.5c0.4-0.1,0.3,0.3,0.6,0.3
			c0,0.1-0.1,0.1-0.1,0.2h3.3c0.5-0.6,1-1.1,1.5-0.8c0.2-0.2,0.1-0.7,0.6-0.6c-0.2,0.5-0.5,1.1-1.1,0.8c-0.1,0.1-0.2,0.4-0.4,0.6
			h3.9c0.3-0.3,0.6-0.5,0.8-0.8c0.1,0.3,0.3,0.5,0.5,0.8h2.7c0.1-0.2,0.4-0.3,0.4-0.5c0.3,0.1,0,0.3-0.2,0.5h3c0,0,0-0.1,0.1-0.2
			c0.2,0,0.4,0,0.5,0.2h12.9c0.5-0.8,0.9-1.6,1.5-2c0,0.3-0.8,0.6-0.3,0.9c1-0.6,2.2-2.5,1.9-3.3c-0.1,0.4-0.5,0.7-1.1,0.6
			c-0.1-1.2-1.3-1.2-1.4-2.4c0.6,0,0.8-0.5,1.1-0.8c-0.6,0.4-0.9-0.3-1.1-0.8c0.3-0.3,0.6-0.7,1.1-0.8c0.2,0,0.2,0.3,0.3,0.5
			c1.9,0.4,1.3-1.7,0.8-2.4C70.6,28.1,70.6,28.5,70.9,28.6z M29.3,27.4C29,26.9,30.1,26.6,29.3,27.4L29.3,27.4z M29.6,27.8
			C29.1,27.1,30.4,27.2,29.6,27.8L29.6,27.8z M30.4,25.5c0-0.2-0.3-0.5-0.1-0.5c0.2,0,0.1,0.3,0.4,0.3
			C30.6,25.4,30.5,25.5,30.4,25.5z M33.1,25c-0.5-0.1,0.2-0.3,0-0.6c-0.4,0.1-0.7,0.4-0.8,0.8c-0.7-0.6,0.5-1.2,0.8-1.7
			C33.8,23.8,33.7,24.7,33.1,25z M35.4,23.8c-0.3,0,0.2-0.7,0.5-0.6C36,23.6,35.3,23.3,35.4,23.8z M36.5,26.9
			c-0.1,0-0.2-0.2-0.3-0.2c0-0.1,0.2-0.2,0.2-0.3c0.1,0,0.2,0.2,0.3,0.2C36.6,26.7,36.5,26.7,36.5,26.9z M36.6,22.8
			c-0.3,0,0.2-0.5,0-0.9c0.4,0,1-1,0.9-1.4c0.1,0.1,0.3,0.2,0.5,0.2c0.1,0.4-0.3,0.3-0.2,0.8c-1,0.2-0.8,1.2-0.9,1.9
			C36.4,23.4,37,22.4,36.6,22.8z M37.4,38.8c-0.4-0.3,0.4-0.9,0.6-1.1C38.5,38.1,37.4,38.3,37.4,38.8z M38.5,20.5
			c-0.2-0.3-0.2-0.7,0.2-1.1C39.1,19.6,38.6,20.2,38.5,20.5z M39.2,31.3c0-0.4,0.2-0.6,0.6-0.6C39.7,31,39.5,31.2,39.2,31.3z
			 M40,30.5c-0.3,0.1-0.2-0.3-0.5-0.3C39.6,29.8,40.1,30.2,40,30.5z M41.7,18.3c0-0.1-0.1-0.2-0.2-0.2c0.5-0.4,1.3,0.7,0.9,1.3
			c-0.5,0-0.6-0.4-0.6-0.9c-0.1,0.1-0.3,0.1-0.3,0.3C41.2,18.8,41.3,18,41.7,18.3z M41.7,13.9c0.1,0.3,0.5,0.2,0.5,0.6
			C41.9,14.4,41.7,14.2,41.7,13.9z M41.2,28.5c0.5,0.1,0.1,0.3,0,0.6C40.8,29,41.4,28.8,41.2,28.5z M41.5,34.1
			c-0.5-0.2,0.2-0.4,0.2-0.6C42.2,33.6,41.5,33.9,41.5,34.1z M41.7,32.7c-0.4-0.1,0-0.6,0.3-0.5C42,32.4,41.7,32.5,41.7,32.7z
			 M41.4,29.6c0-0.4,0.2-0.6,0.6-0.6c-0.3,0.6,0.1,0.3,0.2,0.8C41.7,29.9,41.8,29.8,41.4,29.6z M42,25.8c-0.3,0.3-0.9-0.4-0.9-0.8
			c0.2-0.2,0.8-0.6,0.6,0.2c0.3,0.1,0.3-0.9,0-0.8c0.4-0.4,0.8,0.9,0.8,0.6C43.2,25.7,41.1,25.5,42,25.8z M42.8,14
			c-0.7-0.2-1-0.7-1.1-1.4c0.1,0,0.2,0.1,0.2,0.2C42.3,12.8,43.3,13.2,42.8,14z M67.9,29.6c-0.2-0.1-0.3-0.3-0.5-0.3
			C67.5,28.9,68,29.2,67.9,29.6z M66.5,29.6c0.3,0.2,0.6,0.4,0.9,0.6c0.1,0.7-0.2,1-0.5,1.3c-0.4-0.2-0.6-0.6-1.1-0.8
			C65.8,30,66.6,30.2,66.5,29.6z M63.3,20.6c0.1,0.3-0.1,0.4-0.2,0.6C62.7,21.2,62.8,20.5,63.3,20.6z M62.2,19.5
			c-0.3,1.1-1.2-0.2-1.4-0.6C61.5,18.3,61.3,19.7,62.2,19.5z M60.9,15.1c0.4,0.2,0.7,0.6,0.5,1.1c-0.5-0.1-0.8-0.4-0.9-0.8
			C60.6,15.3,60.9,15.3,60.9,15.1z M60.1,24.4c0.3-0.1,0.4,0.1,0.6,0.2c-0.1,0.4-0.4,0.6-0.5,1.1c-0.4,0.1-0.3-0.3-0.6-0.3
			C59.7,24.9,60.1,24.9,60.1,24.4z M59.2,23.1c0.4,0,0.3,0.5,0.3,0.9c-0.3-0.1-0.3-0.6-0.6-0.6C58.9,23.3,59.2,23.3,59.2,23.1z
			 M58.1,15.7C59,16,57.5,16.5,58.1,15.7L58.1,15.7z M58.1,25.8c-0.3-0.1-0.3,0.1-0.3,0.3c-0.4,0-0.4-0.6-0.2-0.8
			C57.9,25.3,58.1,25.4,58.1,25.8z M58.2,26.4c-0.1,0-0.1,0.1-0.2,0.2c-0.2,0-0.1-0.3-0.2-0.5C58.2,26,58.2,26.2,58.2,26.4z
			 M57.6,24.9c-0.1,0.3-0.5,0.1-0.3,0.6c-0.4,0.1-0.3-0.3-0.8-0.2c0.1-0.4-0.2-0.4-0.2-0.8C56.9,24,56.9,25,57.6,24.9z M56.5,27.5
			c-0.5-0.5-1.1-0.8-1.3-1.6c0.7,0.7,1.8,1,1.9,2.2c-0.6,0-0.3-0.8-0.6-1.1C56.2,27.1,56.5,27.2,56.5,27.5z M56,29.1
			c-0.5,0-0.3-0.7-0.6-0.9C55.5,28,56.4,28.6,56,29.1z M56.2,14c0.3,0,0.3-0.2,0.6-0.2c0,0.3-0.2,0.3-0.2,0.6
			c-0.3,0-0.3-0.2-0.5-0.2V14z M55.2,12.4c0.5-0.1,0.3,0.4,0.8,0.3c-0.1,0.4-0.2,0.7-0.6,0.8C55.2,13.2,54.9,12.8,55.2,12.4z
			 M55.2,15.7c-0.1-0.3,0.1-0.4,0.2-0.6c-0.6,0.3-1.3-0.2-1.4-0.9c0.4,0.4,0.4-0.4,0.9-0.3C55,14.4,56.4,15.3,55.2,15.7z M53.8,18.3
			c-0.4-0.1-0.4,0.2-0.8,0.2c0-0.3-0.9-0.6-0.2-0.6v0.3c0.4,0,0.3-0.5,0.6-0.6c0-0.3-0.5,0-0.5,0.2c-0.4,0,0.2-0.4,0.2-0.6
			c0.3,0.3,0.6,0,0.9,0C53.9,17.4,53.7,17.7,53.8,18.3z M53,25.9c-0.4-0.2-0.5-0.5-0.3-0.9C53,25.1,53.3,25.6,53,25.9z M52.5,17.5
			c-0.9,0.1-0.5-0.4-0.5-0.9c0.2,0,1,0,0.5-0.2c-0.1-0.3,0.6,0,0.6,0.2C53.1,17,52.3,16.5,52.5,17.5z M51.4,19.5
			c-0.2,0,0.4-0.9,0.6-0.5C51.9,19.3,51.6,19.3,51.4,19.5z M51.7,19.5C52.6,19.7,51.1,20.3,51.7,19.5L51.7,19.5z M49.3,32.4
			c0.3-0.6,0.7-0.7,1.3-0.5c-0.2,0.2-0.1,0.7-0.6,0.6C50.4,31.8,49.8,32.3,49.3,32.4z M49.6,21.9c0.1,0,0.1,0.1,0.2,0.2
			c0.4,0.3-0.4-0.2-0.3,0.3c-0.2,0-0.1-0.3-0.2-0.5C49.5,22,49.6,22.1,49.6,21.9z M49.3,20.3c0.1-0.2,0.2-0.5,0.6-0.5
			C49.9,20.1,49.9,20.7,49.3,20.3z M50.3,21.4c0-0.4,0.5-0.2,0.5-0.5C51.2,21.1,50.6,21.9,50.3,21.4z M50.8,19c0-0.2,0-0.3-0.2-0.3
			c0.1-0.1,0.6-0.1,0.8,0C51.4,19,51.1,19.1,50.8,19z M51.2,21.7c0.4,0,0,0.5,0,0.6C50.8,22.2,51.4,22,51.2,21.7z M52.2,11.4
			c0.5-0.1,0.3,0.4,0.6,0.5c0.4-0.1-0.1-0.6-0.3-0.6c0.2-0.5,0.4,0.2,0.6,0.2c-0.3-0.5-0.4-0.7,0.2-1.1c0.7,0,0.6,0.5,1.3,0.2
			c0,0.9,0.7,1.5,0.3,2.4c-0.7-0.2-0.9-1-1.6-1.3c0.6,0.8,1.4,1.6,0.5,2.5C53.6,13.4,51.2,12.6,52.2,11.4z M52.4,15.1
			c-0.1,0.4-0.3-0.4-0.6-0.3C51.9,14.3,52.2,15.1,52.4,15.1z M50.3,13.4c0.6,0.2,1.2,0.4,1.3,1.1c-1.1-0.8,0.5,1.3,0.6,1.3
			c0,0.7-0.8-0.3-0.6,0.8C50.2,16,48.7,14.7,50.3,13.4z M50.4,17.6c-0.1,0.2-0.4,0.2-0.3,0.5c-0.7-0.5-1.3-1-1.7-1.7
			c0.6,0,0.5,0.7,0.9,0.9c0.5-0.1-0.2-0.3,0-0.6C49.9,16.8,49.8,17.5,50.4,17.6z M48.7,19.7c-0.6-0.8-1.6-1.2-1.9-2.4
			c0.2,0,0.3,0,0.3-0.2c0.8,0.6,1.3,1.4,2.1,2C49.2,19.5,48.7,19.3,48.7,19.7z M48.2,26.1c-0.6-0.3-1.2-0.4-1.3-1.3h0.6
			c0,0.3-0.2,0.3-0.2,0.6c0.3,0,0.3-0.2,0.6-0.2c0.2,0.2,0.1,0.8,0.5,0.8c0,0.1-0.1,0.1-0.2,0.2c-0.1,0-0.1,0.1-0.2,0.2
			C48,26.4,48.2,26.3,48.2,26.1z M44.9,15c0.7-0.1,0.4,0.8,1.1,0.6c0,0.4-0.2,0.6-0.6,0.6c-0.4-0.3-0.2-1-0.8-0.6
			C44.6,15.4,44.8,15.2,44.9,15z M44.1,14.2c0.4,0.1,0.6,0.4,0.6,0.9C44,15.2,43.9,14.6,44.1,14.2z M45,12.1
			c0.6,0.9,1.8,1.3,2.1,2.5C46.2,14.2,45.2,13.2,45,12.1z M47.1,18.4c-0.3,0.5-0.5-0.3-0.8-0.3C46.6,17.6,46.8,18.4,47.1,18.4z
			 M46.3,8.5c0.7,0.2,1.6,0.3,1.7,1.1c-0.7,0.1,1,1.6,1.4,2.2c-0.3,0.6-1,0.8-1.1,1.6c-0.5,0-0.9-1-0.6-1.3c0-0.4-0.3,0.2-0.6,0
			c-0.3-0.9-0.8-0.9-0.8-1.7c0.7,0,0.1-0.2,0.6-0.6c-0.1-0.2-0.3-0.1-0.6,0c0,0.2,0.2,0.1,0.3,0.2c-0.1,0.3-0.8,0-0.6,0.6
			c-0.3-0.1-0.5-0.3-0.6-0.6C45.5,9.2,46.2,9.2,46.3,8.5z M44.6,6.5c0.3,0.2-0.3,0.8-0.5,1.1c0.9,0,0.7-1,1.6-0.3
			c-0.2,0.7-1,0.9-1.3,1.6C44,8.7,43.9,8.3,43.6,8C43.7,7.3,44.4,7.1,44.6,6.5z M43.6,11.4c0.7-0.2,0.9,0,1.1,0.6
			c-0.1,0.1-0.4,0.1-0.5,0.3C44.1,11.9,43.5,12,43.6,11.4z M44.1,26.9c0,0.2-0.2,0.1-0.2,0c-0.2,0.1-0.4,0.3-0.5,0.5
			c-0.4-0.3,0.4-0.7,0.5-1.1C44.7,26.4,43.7,26.8,44.1,26.9z M44.7,23c0-0.6-0.7-0.3-0.9-1.3c0-0.5,0.3-0.6,0.5-0.9
			c0.2,0.7,1.5,1.2,1.3,1.9c-0.3,0.4,0.1-0.2-0.2-0.3C45,22.4,45,22.8,44.7,23z M45.7,28.3c-0.2,0.4-0.4,0.7-0.6,1.1
			C44.6,29,45.3,28.4,45.7,28.3z M46.2,33.6c-0.2,0-0.1-0.2-0.2-0.3c-0.4,0-0.1,0.6-0.6,0.5c0-0.2,0-0.3-0.2-0.3
			c0-0.5,0.4-0.5,0.5-0.9C45.8,33,46.5,33.3,46.2,33.6z M46,32.6c0.2,0,0.3,0.3,0.5,0.3C46.4,33.3,45.9,32.9,46,32.6z M46.3,24.7
			c-0.4,0.1-0.3-0.3-0.6-0.3c0.4-0.1,0.4-0.8,0.9-0.8C46.8,24.2,46.3,24.2,46.3,24.7z M45.8,18.6c0.6,0,1.4,1.2,1.9,1.9
			C46.9,20,46.5,19.1,45.8,18.6z M47.7,31.9c-0.3-0.4,0.3-0.5-0.6-0.3c-0.1-0.3-0.5-1-0.2-1.1c0.3-0.4,0,0.1,0,0.3
			c0.6,0,0.7-1,1.2-0.4c-0.2-0.2-0.1-0.7,0.1-0.9c0.3,0.3,0.5,0.6,0.6,0.9c0.1-0.1,0.3-0.1,0.3-0.3c0.4,0,0.1,0.9,0.6,0.8
			c-0.1,0.3-0.6,0.6-0.9,0.3c-0.1-0.4,0.3-0.3,0.3-0.6c-0.4-0.2-0.4,0.7-0.6,0.2C48.6,31.1,48,31.4,47.7,31.9z M48.9,32.1v-0.5
			C49.3,31.4,49.3,32.3,48.9,32.1z M49.2,32.4c-0.1,0.2-0.3,0.3-0.3,0.5c-0.2,0-0.1-0.3-0.2-0.5H49.2z M48.7,31.4
			c0.1,0.3-0.1,0.3-0.3,0.3c0.4,0.2,0.2,0.4,0,0.8C48.3,32.5,47.9,31.4,48.7,31.4z M50.6,38.8c-1.2-0.3-1.7-1.2-2.2-2.2
			c0.3-0.1,0.4,0.1,0.6,0.2c-0.1-0.1-0.1-0.3-0.3-0.3c0.3-0.2,0.5-0.6,0.6-0.9c0.1,0.1,0.4,0.2,0.6,0.2c-0.1,0.6,1,0.8,0.5,1.3
			c0,0.4,0.4-0.1,0.3-0.3c0.3,0.2,0.4,0.6,0.8,0.8C51.4,38,50.7,38.1,50.6,38.8z M53,35.2c-0.6-0.3-0.9-1-1.4-1.4
			c0.1,0.1-0.1,1.7,0.5,1.3c0.2,0,0.1,0.3,0.2,0.5c-0.1,0-0.2,0.1-0.2,0.2c-0.6-0.3-0.8-1-1.6-1.1c0-0.4,0.2-0.6,0.6-0.6
			c-0.1,0.4,0.3,0.3,0.5,0.5c0-0.4-0.2-0.5-0.5-0.6c0.2-0.3,0.5-0.5,0.6-0.9c0.1,0.1,0.3,0.2,0.5,0.2c-0.4,1.1,0.6,0.3,0.5,1.6
			c0.3-0.1,0.3-0.5,0.6-0.2C53.5,35,52.9,34.7,53,35.2z M53.8,24.9c-0.3-0.1-0.4-0.4-0.5-0.8c0.4,0,0.6,0.4,0.9,0.5
			C54.2,24.8,53.8,24.6,53.8,24.9z M54.7,27.7c-0.2-0.1-0.5-0.2-0.5-0.6h0.5V27.7z M55,23c-0.3-0.2-0.9,0.2-0.8-0.6
			c0.1,0.1,0.3,0.1,0.3,0.3c0.2-0.1,0.2-0.4,0.5-0.3V23z M56,38.2c-0.3-0.5-1.1-0.8-0.8-1.4C55.5,37.2,56.3,37.7,56,38.2z
			 M55.8,30.5c0.2-0.6,0.5,0.2,0.9,0.2C56.5,31.2,56.2,30.4,55.8,30.5z M56.8,30.2c-0.1-0.5-0.1-0.3,0-0.8c0.5-0.1,0.4,0.4,0.8,0.5
			C57.6,30.2,57.2,30.2,56.8,30.2z M57.7,31.9c0.8-0.1,0.5,0.8,0.6,0.9C58.1,33.3,57.3,32.2,57.7,31.9z M57.9,23.1
			c0.5,0.3,0.8-0.5,0.5-0.2c-0.6-0.3,0.6-0.5,0.6-0.2c-0.1,0.4-0.7,0.3-0.5,0.9C58.1,23.7,57.9,23.5,57.9,23.1z M58.9,26.1
			c0.4-0.1,0,1.2,0.3,0.6c0.3-0.4-0.1,0.3,0,0.6C58.4,27.3,58.5,26.5,58.9,26.1z M59.2,37.9c-0.1-0.3,0.3-0.2,0.3-0.5
			C59.9,37.5,59.5,38,59.2,37.9z M59.6,29.1c-0.1-0.8,0.6-0.8,0.6-1.4c0.3,0,0.3,0.4,0.6,0.5C60.2,28.5,60.2,28.8,59.6,29.1z
			 M61.1,29.1c0.5,0.3,0.4,0.4,0.5,0.9c-0.3-0.2-0.3-0.7-0.8-0.6c0,0.4,0.3,0.4,0.5,0.6c-0.2,0.3-0.6-0.4-0.9-0.5
			c0.1-0.4,0.7-0.4,0.6-0.9c0.3-0.1,0.2,0.3,0.5,0.3c0.2,0,0.1-0.2,0.2-0.3C62,28.8,61.5,29.3,61.1,29.1z M62.2,26.7
			c-0.3-0.2-0.8-0.7-0.5-1.1c0.4,0.3,0.2,0.6,0.6,0.6C62.8,26.6,61.9,26,62.2,26.7z M62.8,31.6c0.5,0.1,0.7,0.3,0.8,0.8
			C63.2,32.3,62.9,32.1,62.8,31.6z M63,27.7c0-0.2,0.3-0.1,0.5-0.2c-0.1-0.4-1.2,0.1-0.9-0.6c0.2,0,0.3,0,0.3-0.2
			c0.2,0,0.1,0.2,0,0.2c0,0.2,0.4,0.1,0.6,0.2c0-0.2-0.3-0.3-0.3-0.5c-0.1-0.4,0.4,0.7,0.6,0.6C63.7,27.6,63.2,27.9,63,27.7z
			 M64.4,23.8c0.5,0.2,0.5,0.8,0.9,0.9c-0.3,0.7-1-0.1-1.4-0.3C64,24.1,64.2,24,64.4,23.8z M64.7,26.1c-0.3,0.1-0.2-0.3-0.5-0.3
			c0-0.2,0.3-0.1,0.5-0.2V26.1z M64.9,29.6c0.1-0.1,0.2-0.4,0.2-0.6c0.2-0.1,0.6,0.3,0.6,0.3c0,0,0,0-0.1-0.1
			c0.5-0.3,0.4,0.5,0.2,0.9C65.1,30.2,65.4,29.4,64.9,29.6z M65.1,35.8c0.7-0.1,1.9,0.8,2.2,1.6C66.6,38,65.9,36.1,65.1,35.8z
			 M68.5,36.2c-0.3,0.7-1.2,1.3-1.4,0.2c0.7-0.1,0.6-0.7,0.5-1.3C68,35.3,68.5,35.6,68.5,36.2z M68.4,32.1c-0.1,0.2-0.2,0.3-0.5,0.3
			C67.8,32.1,68.1,32.1,68.4,32.1z M70.1,25.8h0.5v0.5C70.3,26.3,70.1,26.1,70.1,25.8z"/>
		<path class="st1" d="M31.2,23.3c0.3-0.8,1.2-1,1.6-1.7C32.9,22.1,31.9,23,31.2,23.3z"/>
		<path class="st1" d="M43.1,6c0.4-0.2-0.4,0.4-0.5,0.5C41.8,7.5,42.2,7,43.1,6z"/>
		<path class="st1" d="M40.9,7.3c0.3,0-0.1,0.8-0.5,0.6C40.5,7.6,40.9,7.6,40.9,7.3z"/>
		<path class="st1" d="M32.3,12.9c0.2,0,0.4,0,0.6,0c-0.2,0.7,0.9,0.7,0.9,1.6C33.4,14,32.8,13.5,32.3,12.9z"/>
		<path class="st1" d="M38.8,15c-0.2,0.5,0.5,0.1,0.3,0.6c-0.3,0.3-0.6-0.2-0.8-0.5c-0.5,0.1,0.2,0.3,0,0.6
			c-0.1-0.3-0.5-0.2-0.5-0.6C38.3,15.1,38.4,14.8,38.8,15z"/>
		<path class="st1" d="M28.5,21.4C29.2,20.6,27.9,22.1,28.5,21.4L28.5,21.4z"/>
		<path class="st1" d="M27.9,21.9C27.4,21.5,28.8,22.4,27.9,21.9L27.9,21.9z"/>
		<path class="st1" d="M26.5,24.4c0.2-0.5,1.5-2,0.9-1.7c-1,1-2.4,1.8-2.9,3.3c0.1,0.2,0.2,0.4,0.3,0.6c0.5,0.1,0.5-0.3,0.8,0
			c0.1-1.1,1.8-2.3,1.6-2.7C27.1,24.2,27,24.4,26.5,24.4z M26.1,25.2c-0.4-0.2,0.1-0.7,0.5-0.6C26.8,25,26.1,24.7,26.1,25.2z"/>
		<path class="st1" d="M69.8,33.8c0.5,0.1-0.4,0.2-0.2,0.6c-0.2,0-0.1-0.4-0.2-0.6C69.6,33.9,69.8,34,69.8,33.8z"/>
		<path class="st2" d="M42,46.2l1.9-4.3l6-16.3c0,0,0-2.2-0.2-3.3c-0.2-1.1-5.1-8.3-5.1-8.3s-0.5-1.6,0.4-3.7c0.9-2.1,2.3-5,2.3-5
			L50,4.6l1.4-1.8l1.9-0.3c0,0,1.6,0.3,1.6,0.4c0,0,1,1.3,1,1.3L56,4.7l1-1.2l0.9,0l0.8,0l1.2,0.4l0.9,1c0,0,0.4,1,0.4,1.1
			c0,0.1,0,0.3,0,0.3l1.4-0.1l1.6,0.4c0,0,0.5,0.8,0.6,0.9c0.1,0.1,0.2,0.9,0.2,0.9v0.3l1.1-0.3c0,0,1,0,1.1,0
			c0.1,0,0.7,0.6,0.7,0.6l1,0.7c0,0,0.3,1,0.3,1.1c0,0.1-0.2,3.5-0.2,3.5s-0.4,2.6-1.3,4.6c-0.9,2-3.8,7.8-3.8,7.8
			s-8.6,19.2-8.7,19.6C55.1,46.6,42,46.2,42,46.2z"/>
		<path d="M69.8,11c0-1-0.1-1.7-0.9-2.3c-0.6-0.5-1.2-1-2-1c-0.4,0-0.8,0.1-1.1,0.3c0,0,0,0,0,0c0-1.6-1.3-2.3-2.6-2.4
			c-0.5,0-1,0-1.4,0.1c0-0.5-0.2-0.9-0.4-1.3c-0.9-1.5-2.8-1.5-3.1-1.5c-0.3,0-0.9,0-1.4,0.4c-0.3,0.2-0.4,0.3-0.6,0.6
			c-0.1-0.4-0.3-0.7-0.6-1.1c-1.1-1.2-2.9-0.7-3.2-0.6c-1,0.3-1.6,1-1.8,1.3c-0.2,0.3-0.4,0.6-0.5,1c0,0-1.2,0.1-1.3,0.2
			c-0.8,0.1-1.4,0.6-1.9,1.2c-0.7,0.9-1.3,1.9-1.7,3c-0.2,0.5-0.4,1.1-0.6,1.6c-0.2,0.6-0.5,1.1-0.6,1.7c-0.1,0.3-0.1,0.6,0,0.9
			c0.1,0.5,0.2,0.9,0.4,1.4l0,0c0.3,0.6,0.7,1.1,1,1.7c0.2,0.3,0.4,0.6,0.6,0.9c0.1,0.2,0.2,0.3,0.3,0.5c0.1,0.1,0.1,0.2,0.2,0.4
			c0.1,0.2,0.2,0.3,0.3,0.5c0.3,0.5,0.6,1,0.9,1.4c0.2,0.2,0.3,0.5,0.5,0.7c0,0,0.1,0.1,0.1,0.2c0.4,0.7,0.8,1.5,1.1,2.2
			c0.1,0.4-0.1,0.8,0,1.2c0,0,0,0.3,0.3,0.1c-0.3,0.6-0.2,1.4-0.4,2.1c-0.6,1.7-4.9,13.5-5.5,15.1c-0.2,0.4-2.4,5.3-2.6,5.8
			c0.1,0,0.7-0.1,1,0c0.2-0.5,2.2-5.1,2.3-5.6c0.6-1.6,4.9-13.2,5.5-15v0c0.2-0.5,0.3-1,0.4-1.6c0,0,0,0,0,0
			c0.1,0.1,0.3,0.3,0.5,0.4c0.2,0.1,0.4,0.2,0.5,0.3c0.4,0.2,0.8,0.3,1.2,0.3c0.4,0,0.8,0,1.2-0.1c0.4-0.1,0.7-0.2,1.1-0.5
			c-0.2,0-0.4,0-0.6,0c-0.2,0-0.4,0-0.6,0c-0.4,0-0.7,0-1-0.1c-0.7-0.1-1.2-0.4-1.7-0.9c-0.3-0.3-0.6-0.8-0.8-1.2c0,0,0-0.1,0-0.1
			c-0.1-0.2-0.2-0.4-0.2-0.6c0,0,0.1,0.1,0.2,0.1c0.1,0.1,0.2,0.1,0.4,0.2c0.1,0,0.1,0.1,0.2,0.1l0.2,0.1c0.1,0.1,0.3,0.1,0.4,0.1
			c0.1,0,0.3,0.1,0.4,0.1c0.5,0.1,1.1,0.1,1.6,0.1c1.1-0.1,2-0.4,2.9-1c-1,0.1-2,0.3-2.9,0.2c-0.5,0-0.9-0.1-1.4-0.2
			c-0.4-0.1-0.8-0.3-1.2-0.5c-0.2-0.1-0.4-0.3-0.5-0.4c-0.2-0.2-0.4-0.3-0.5-0.5c-0.1-0.1-0.2-0.2-0.3-0.3c-0.2-0.2-0.4-0.5-0.6-0.7
			c0,0,0,0,0,0c0,0-0.1-0.1-0.1-0.1c0,0,0,0,0,0c-0.1-0.2-0.2-0.4-0.3-0.5c-0.5-0.7-0.9-1.5-1.4-2.2c-0.4-0.7-0.9-1.3-1.3-2
			c-0.4-0.6-0.7-1.2-0.7-2s0.3-1.5,0.5-2.2c0.3-0.8,0.6-1.5,1-2.2c0.5-1,0.9-2.4,1.9-3c0.1-0.1,0.3-0.1,0.4-0.2
			c0,0.1,0.1,0.1,0.2,0.2c0.1,0.2,0.2,0.3,0.2,0.5c0,0.1,0,0.2,0,0.3s0,0.2,0,0.3c0,0.2-0.1,0.4-0.2,0.6c0.2-0.1,0.3-0.3,0.4-0.6
			c0-0.1,0.1-0.2,0.1-0.3c0-0.1,0-0.2,0-0.4c0-0.2-0.2-0.5-0.3-0.7c0,0-0.1-0.1-0.1-0.1C49.6,5,50,5,50.4,5c1.1,0,2.2,0.1,3.2,0.3
			c0.6,0.1,1.1,0.1,1.7,0.2c0,0,0,0,0.1,0c0.1,0,0.2,0,0.3,0c0.2,0,0.3,0,0.5,0.1c0.1,0,0.2,0,0.3,0.1c0.8,0.2,0.9,0.9,0.7,1.6
			c-0.3,0-0.7,0-1,0c-0.2,0-0.5,0-0.7,0c-0.2,0-0.5-0.1-0.7-0.1c-0.1,0-0.2-0.1-0.3-0.2l0,0c0,0-0.1-0.1-0.1-0.1c0,0,0,0,0,0
			c-0.1-0.2-0.2-0.4-0.3-0.6c0,0.2,0,0.5,0.1,0.7c0,0,0,0.1,0.1,0.1c0,0.1,0.1,0.1,0.2,0.2c0.1,0.1,0.2,0.2,0.3,0.2
			c0.2,0.1,0.5,0.2,0.7,0.2c0.2,0,0.5,0.1,0.7,0.1c0.3,0,0.6,0,0.8,0c-0.4,0.7-1,1.3-1.7,1.6c-0.5,0.2-1,0.4-1.6,0.4
			c-0.6,0.1-1.1,0.2-1.7,0.2c-0.6,0-1.1,0-1.6-0.3c-0.1,0-0.1,0-0.2-0.1c0,0-0.1,0-0.1-0.1c-0.4-0.2-0.7-0.5-1-0.9
			c0.1,0.1,0.2,0.2,0.2,0.3c-0.1-0.1-0.2-0.2-0.2-0.3c0.1,0.2,0.4,0.7,0.8,1c0.1,0.1,0.3,0.2,0.4,0.3c0.1,0,0.2,0.1,0.2,0.1
			c0.2,0.1,0.5,0.2,0.7,0.2c0,0.2,0.1,0.4,0,0.5c0,0.2-0.1,0.4-0.3,0.7c-0.5,0.7-1.4,1.3-1.7,1.5c0.9,0,1.4-0.3,1.6-0.5
			c0.3-0.3,0.5-0.6,0.8-0.9c0,0.5-0.1,1.1-0.3,1.6c-0.2,0.5-0.4,1.1-0.7,1.6c0.5-0.3,0.9-0.8,1.2-1.4c0.3-0.6,0.5-1.2,0.5-1.8
			c0-0.1,0-0.2,0-0.3c0,0,0.1,0,0.2,0c0.6,0,2-0.3,2.3,0.4c0.1,0.3,0.3,0.6,0.6,0.8c0.5,0.4,1,0.7,1.5,0.8c0.2,0,0.4,0,0.6,0
			c0.1,0,0.2,0,0.3-0.1h0l0,0c0.7,0.6,1.3,1.4,1.6,2.4c0.4,1.7-0.3,3.2-0.7,3.9c0.3-0.3,0.9-1,1.2-2c0.3-0.9,0.2-1.8,0.2-2.2
			c0,0,0,0,0.1,0c0.2,0,0.4,0,0.5,0.1c0.1,0,0.2,0.1,0.3,0.1c1.1,0.6,1.5,2.6,0.9,5c0.3-0.6,0.7-1.7,0.7-3.1c0-0.7-0.2-1.3-0.3-1.7
			c0.2,0.1,0.6,0.1,1,0.1c0.3,0,0.5,0,0.7-0.1c0.2,0.1,0.6,0.4,1.1,0.5c0.2,0,0.3,0,0.5,0c0.8,0,1.6-0.5,2-1.3
			c0.2-0.1,0.3-0.3,0.4-0.4c0.5-0.5,0.7-0.6,1-0.6c0.1,0,0.2,0,0.3,0c-0.2,1.4-0.7,2.6-1.3,4.1c-0.8,1.9-1.3,2.9-1.9,4
			c-0.3,0.5-0.6,1.1-0.9,1.8c-0.4,0.2-0.9,0.3-1.4,0.3c-0.7,0-1.4-0.1-2.1-0.5c0.5,0.6,1.3,1,2.1,1.1c0.3,0,0.6,0,1,0
			c0,0.1-0.1,0.2-0.1,0.2c-0.5,1.2-5.8,13.3-6.8,16.2c-0.3,0.9-0.3,0.8-0.6,1.8c0.2-0.1,0.6,0,0.6,0c0.2-0.8,0.3-0.8,0.6-1.6
			c1-2.9,6.2-15,6.8-16.2c0.6-1.3,1-2.2,1.4-3c0.6-1.1,1.1-2.2,1.9-4c0.7-1.8,1.2-3,1.4-4.7C69.8,12.8,69.9,11.9,69.8,11z M51,4.2
			c0.1-0.2,0.2-0.4,0.3-0.6c0.2-0.1,0.3-0.1,0.5-0.2c0.3-0.1,0.6-0.2,1-0.3c0.3-0.1,0.6-0.1,1-0.1c0.3,0,0.7,0,1,0
			c-0.3-0.1-0.7-0.2-1-0.2c-0.4,0-0.7,0-1.1,0.1C52.3,2.9,52,3,51.7,3.1c0.3-0.2,0.6-0.5,1.1-0.6c0.3-0.1,1.8-0.5,2.6,0.5
			c0.5,0.5,0.6,1.3,0.5,1.7C54.3,4.3,52.7,4.1,51,4.2z M57.4,12.8c-0.2,0-0.4,0-0.6-0.1c-0.4-0.1-0.7-0.3-1-0.6
			c-0.4-0.3-0.6-0.7-0.5-1.2l0.1-1.2h0c0,0,0,0,0,0c0.7-0.3,1.3-0.8,1.7-1.3c0.4-0.5,1-1.3,0.9-2c0-0.3-0.2-0.6-0.5-0.9
			c-0.2-0.1-0.3-0.3-0.5-0.4c-0.1,0-0.5-0.2-0.5-0.2c0-0.3,0.2-0.9,0.8-1.3c0.4-0.2,0.8-0.3,1.1-0.3c0.1,0,1.8,0,2.5,1.2
			c0.2,0.3,0.3,0.7,0.3,1.1c0-0.2-0.1-0.4-0.2-0.5c-0.2-0.4-0.5-0.7-0.9-0.9C59.8,4,59.4,3.9,59,3.8c-0.4,0-0.8,0-1.2,0.2
			c0.4,0,0.8,0,1.1,0c0.4,0.1,0.7,0.2,1,0.4c0.3,0.2,0.6,0.4,0.8,0.7c0.2,0.2,0.3,0.4,0.4,0.6c-0.4,0.9-0.8,1.9-1.1,2.8
			c-0.4,1-0.6,2-1.2,2.9c-0.1,0.1-0.2,0.3-0.3,0.4C58.2,12.5,57.8,12.7,57.4,12.8z M63.2,13.1c-0.3,0.6-0.8,1.2-1.5,1.4
			c-0.4,0.1-0.8,0.1-1.3-0.1c-0.3-0.1-0.5-0.3-0.7-0.5c-0.1-0.1-0.2-0.3-0.3-0.4c-0.1-0.1-0.1-0.2-0.1-0.3c-0.2-0.5-0.1-0.9-0.1-1.2
			c0.6-0.8,0.9-1.7,1.2-2.6c0-0.1,0.1-0.3,0.1-0.4c0.3-0.9,0.7-1.9,1.1-2.8C62.2,6,62.7,6,63.2,6c0.5,0,2,0.3,2,1.8l0,0
			c-0.2-0.3-0.4-0.6-0.7-0.8c-0.3-0.2-0.7-0.4-1-0.4c-0.4-0.1-0.7,0-1.1,0c0.4,0,0.7,0.1,1,0.2C63.8,7,64,7.1,64.3,7.3
			C64.6,7.5,64.8,7.7,65,8c0.1,0.1,0.2,0.2,0.2,0.3c-0.1,0.7-0.4,1.4-0.7,1.9c-0.2,0.4-0.4,0.9-0.6,1.4c-0.1,0.3-0.2,0.6-0.4,0.9
			C63.5,12.5,63.3,12.8,63.2,13.1z M69.2,10.4c-0.1-0.2-0.2-0.4-0.4-0.6c-0.1-0.2-0.3-0.3-0.5-0.4C68.2,9.2,68,9.1,67.8,9
			c-0.4-0.1-0.9-0.1-1.2,0.1c0.4-0.1,0.8-0.1,1.1,0.1c0.2,0.1,0.3,0.2,0.5,0.3c0.2,0.1,0.3,0.2,0.4,0.4c0.2,0.2,0.4,0.5,0.5,0.8
			c-0.6,1.3-1.9,3.4-2.1,3.8l0,0c-0.3,0.7-0.9,1.1-1.6,1.1c-0.7,0-1.2-0.4-1.2-0.5c-0.1-0.1-0.3-0.3-0.4-0.6c-0.2-0.5-0.1-1,0-1.3
			c0.1-0.2,0.2-0.3,0.3-0.5c0.2-0.3,0.3-0.7,0.5-1.1c0.2-0.4,0.4-0.9,0.6-1.3c0.2-0.5,0.5-1.1,0.7-1.8l0,0c0.3-0.2,0.7-0.5,1.2-0.5
			c0.7,0,1.1,0.4,1.6,0.8c0.3,0.3,0.6,0.5,0.6,0.8C69.2,10.1,69.2,10.2,69.2,10.4z"/>
		<path class="st3" d="M42.5,43H3.8V25.3l45.6-0.9l-1.2,3.5L42.5,43z"/>
		<path d="M20.4,28.4l1.7,11.5h-3.1l-0.2-2.1h-1.1l-0.2,2.1h-3.1l1.5-11.5H20.4L20.4,28.4z M18.9,35.8c-0.2-1.3-0.3-2.9-0.5-4.8
			c-0.3,2.2-0.5,3.8-0.6,4.8H18.9z"/>
		<path d="M29.7,33.4h-3v-2c0-0.6,0-0.9-0.1-1.1c-0.1-0.1-0.2-0.2-0.4-0.2c-0.2,0-0.4,0.1-0.5,0.3s-0.1,0.5-0.1,1.1v5.3
			c0,0.6,0,0.9,0.1,1.1c0.1,0.2,0.2,0.2,0.5,0.2c0.2,0,0.4-0.1,0.4-0.2c0.1-0.2,0.1-0.6,0.1-1.2v-1.4h3v0.4c0,1.2-0.1,2-0.2,2.5
			c-0.2,0.5-0.6,0.9-1.1,1.3c-0.6,0.4-1.3,0.6-2.1,0.6c-0.9,0-1.6-0.2-2.2-0.5c-0.6-0.3-1-0.8-1.1-1.3c-0.2-0.6-0.3-1.4-0.3-2.5
			v-3.3c0-0.8,0-1.4,0.1-1.9c0-0.4,0.2-0.8,0.5-1.2s0.7-0.7,1.2-0.9c0.5-0.2,1.1-0.3,1.7-0.3c0.9,0,1.6,0.2,2.2,0.5
			c0.6,0.3,1,0.8,1.1,1.3c0.2,0.5,0.3,1.3,0.3,2.4V33.4L29.7,33.4z"/>
		<path d="M36.8,28.4v2.3H35v9.2h-3v-9.2h-1.8v-2.3H36.8L36.8,28.4z"/>
		<path class="st4" d="M53.9,31c0,0,0.2-0.6-0.6,2.5c-0.4,1.5-0.2,2.7-0.7,4.6"/>
		<path class="st5" d="M93.5,46.3H45.4l5.2-17.7h42.9V46.3z"/>
		<path d="M60.3,31.6v10.5h-2.4l-1.4-4.8v4.8h-2.3V31.6h2.3l1.6,4.7v-4.7H60.3L60.3,31.6z"/>
		<path d="M68.2,37.8c0,1.1,0,1.8-0.1,2.2c0,0.4-0.2,0.8-0.5,1.2c-0.3,0.4-0.6,0.6-1.1,0.8c-0.5,0.2-1,0.3-1.6,0.3
			c-0.6,0-1.1-0.1-1.5-0.3c-0.5-0.2-0.8-0.5-1.1-0.8c-0.3-0.4-0.4-0.8-0.5-1.2c-0.1-0.4-0.1-1.2-0.1-2.3V36c0-1.1,0-1.8,0.1-2.2
			c0-0.4,0.2-0.8,0.5-1.2c0.3-0.4,0.6-0.6,1.1-0.8c0.5-0.2,1-0.3,1.6-0.3c0.6,0,1.1,0.1,1.5,0.3c0.5,0.2,0.8,0.5,1.1,0.8
			c0.3,0.4,0.4,0.8,0.5,1.2c0.1,0.4,0.1,1.2,0.1,2.3V37.8z M65.5,34.3c0-0.5,0-0.8-0.1-0.9c0-0.1-0.2-0.2-0.3-0.2
			c-0.2,0-0.3,0-0.3,0.2c-0.1,0.1-0.1,0.4-0.1,1v4.9c0,0.6,0,1,0.1,1.1c0,0.1,0.2,0.2,0.4,0.2s0.3-0.1,0.4-0.2
			c0.1-0.2,0.1-0.6,0.1-1.2L65.5,34.3L65.5,34.3z"/>
		<path d="M80.2,31.7L79,42.3h-3.4c-0.3-1.6-0.6-3.5-0.8-5.5c-0.1,0.9-0.4,2.7-0.8,5.5h-3.4l-1.2-10.5H72l0.3,3.7l0.3,3.5
			c0.1-1.8,0.4-4.2,0.8-7.2h2.9c0,0.3,0.1,1.5,0.3,3.5l0.3,4c0.2-2.6,0.4-5,0.8-7.5H80.2L80.2,31.7z"/>
		<path d="M84.6,38.9h-1.8l0.9-7.4H86L84.6,38.9z M82,41.2c0-0.4,0.1-0.7,0.3-0.9c0.2-0.3,0.5-0.4,0.9-0.4c0.4,0,0.6,0.1,0.9,0.4
			c0.2,0.2,0.4,0.5,0.4,0.9c0,0.4-0.1,0.7-0.3,0.9c-0.2,0.2-0.5,0.4-0.9,0.4c-0.3,0-0.6-0.1-0.9-0.3C82.2,41.9,82,41.6,82,41.2z"/>
	</g>
</g>
</svg>
