<?xml version="1.0" encoding="utf-8"?>
<!-- Generator: Adobe Illustrator 25.2.2, SVG Export Plug-In . SVG Version: 6.00 Build 0)  -->
<svg version="1.1" id="Layer_1" xmlns="http://www.w3.org/2000/svg" xmlns:xlink="http://www.w3.org/1999/xlink" x="0px" y="0px"
	 viewBox="0 0 732 414" style="enable-background:new 0 0 732 414;" xml:space="preserve">
<style type="text/css">
	.st0{fill-rule:evenodd;clip-rule:evenodd;fill:#FFE500;}
	.st1{fill-rule:evenodd;clip-rule:evenodd;fill:#FFFFFF;}
	.st2{fill:#FFE500;}
	.st3{fill:none;stroke:#000000;stroke-miterlimit:10;}
	.st4{fill:#FFFFFF;}
</style>
<g>
	<path class="st0" d="M437.7,91.2c2.1-0.5,1.9,1.4,2,3c-0.8-0.2-1-1-2-1C437.7,92.5,437.7,91.8,437.7,91.2z"/>
	<path class="st0" d="M335.3,119.3c1,4,2.5,7.5,6,9c-2,2.6-4.7-2.5-6-4c-3-0.7-9.5,2.1-8-3c2.7-0.7,2,2,4,2
		C329.3,119.6,332.4,120.2,335.3,119.3z"/>
	<path class="st0" d="M397.6,77.1c0.2,0,0.4,0,0.6,0C398,77,397.8,77,397.6,77.1z M562.2,227.7c6.1-6.4,2.8-14.3,6-23.1
		c-1.3-1.4-4.4-1-7-1c-1.3,2.1-1.6,5.1-5,5c-5.6-3.1-10-7.5-13.1-13c4.9-13,18.8-21.9,18.1-37.1c-3.2-0.6-4.7,0.7-7,1
		c-5.3,11.1-12,20.8-18.1,31.1c-2-1.3-3.4-3.3-4-6c5.9,0.6,6.4-4.3,8-8c-0.8-3.2-3.7-4.4-5-7c0.9-1.8,2.4-2.9,3-5
		c-3.4-0.7-1.7,3.7-4,4c-0.3-2-2.7-2-3-4c3.6-2.2,3.5-5.2,0-5c1.2-1.5,4-6.7,2-8c-0.3,0.9-2.7,4.4-3,2c3.1-4.9,8.5-7.5,10-14
		c-10.7,4.4-10.6,7.6-17.1,15.1c-0.4-1.2-7.8-1.3-9-7c8-10.4,17.8-19,25.1-30.1c-0.8-2.6-3.2-3.5-7-3c-3.3,4.7-6.1,10-11,13.1
		c-0.2-1.5,0.4-3.7-1-4c-2.2,7.9-8.6,11.5-12,18.1c-2-1.7-4.7-2.7-5-6c10.9-14.9,26.8-24.8,35.1-42.2c-3.1,0.7-3-1.7-6-1
		c-13.7,15.7-30.2,28.7-42.1,46.2c0-1.3-1.8-0.9-2-2c2.7-4.7,11.6-11.8,13-17.1c-3.9,3.2-8.4,11-12,11c9.4-13.4,21.4-24.1,28.1-40.2
		c-14.9-7.7-22.5,26.2-33.1,28.1c-0.6,3.8-2.7,6.7-3,8c-4.9-2.7-0.4-3-6-3c1.1-1.6,6-4.6,3-7c-1.7,2-2.7,4.7-6,5
		c-3.4-2.1,0.5-3.8-1-5c-0.9,3.4-1.9,0.5-5,1c-0.7-7-7.2-8.2-9-14.1C472.4,84,489.2,66,503,45c-3.1,0.7-3.8-1.1-6.2-1.1
		c-0.3,0-0.5,0-0.9,0.1c-9.1,8.3-14,20.8-23.1,29.1c1.6-5.8,7-7.7,8-14c-3.2,0.9-2.1-2.6-4-3c-5.2,5.3-17.8,19.1-23.1,27.1
		c-3.8,5.7-4.3,13.4-12,6c1.2-6.6-5.5-2.7-3-7c-2.9,3.3-7.2-4.8-6-2c4.2,6.1,9.4,9.6,11,16.1c-2.3,0.3-1.1-2.9-3-3
		c-2.1,4,0.5,4.6,2,5c-0.9,2.5-2.3,4.4-6,4c-2.3-3.8-6-11.4-10-10c4.9,4.4,7.3,6.5,11,13c-3.5,5.7-6.9,6.7-11,1
		c-0.6-2.7,4.5-4.7,2-6c-1.3,1.7-2.1,4-5,4c-2.4-7.3-13.3-8.1-11-17.1c-7,2.5-10.1-9.4-14.5-10c1,0.6,0.8,4.6-0.6,4
		c-1.6-2.4-4.8-8.6-8-6c3.6,1.4,4,6.1,7,8c-3.8,9.2-12.5,10.6-16.1,18.1c1.5,3.6,5.3,4.7,6,9c-1.4,0.6-0.1,3.9-2,4
		c1.8-6.5-7.8-1.5-6-8h-5c-0.4,2.4,1.8,2.2,1,5c-2.3,0.3-1.1-2.9-3-3c-2,2,0.4,2,1,4c-1.5,0.5-2.5,1.5-4,2c-0.3-0.9-2-5.1-3-2
		c3.8,4.6,9.4,7.3,11,14c-5.5-3.5-8-10.1-14.1-13c-2.7,2.6,1.2,3,1,6c-3.1-2.6-4.7-1.5-8,0c-3.3-4-6.5-8.2-13.1-9c-2,0-1.3,2.7-4,2
		v7c13,6.7,21.3,18.2,30.1,29.1c-4.5-3-4.9,5.3-9,0c-0.1,4,5.2,5.5,1,8c-8.4-5-12.6-14.2-21.1-19.1c-2.1,0.3-0.9,3.7-3,4
		c1.9,3.4,4.5,10.4,9,8c3.6,5.5,4.4,8.8,9,14.1c-0.3,1.4-1.4,1.9-1,4c-17.7,10.3-29.1,27.6-45.2,38.9c0.1-3.1,7.2-3.9,4-6.8
		c-0.4,1.7-4.3,4.9-5,3c-0.3-3,3.3-7.3,2-8c-0.3,1.5-4.2,4.3-5,2c5-4.7,14.1-10.7,14.1-17.1c-13.5,19.5-30.5,17.4-38.1,38.1
		c4.6-3.4,5.1-11,11-13c-2.8,6.2-8.5,9.6-10,17.1c5.8-2.2,5-11,11-13c0.3,2.7,2.6,3.4,5,4c1.1-2.6,3.1-4.3,6-5
		c-4.5,4.2-9.4,13.3-14,14c0.9-4.1,6.1-5.8,4-10c-10.9,10.6-1.5,19.9,8,25.1c2.1-1.4,8.4-9.5,13-8c-4.2,2.5-8.2,5.2-10,10
		c3.5,4.5,10.5,8,15.1,14c-2.2,6.3,6.5,11.1,12.1,10c0.3,2.3-2.9,1.1-3,3c5.7,2,12.2,3.2,12.1,11c-3.5,4.6-9.1,10.3-9.2,16.1h26
		c-0.1-1,0-2,0.3-3c2.7-0.7,2,2,4,2c-0.3,0.4-0.6,0.7-0.8,1h20.6c3.1-3.8,6.5-7,9.4-5c1.2-1.5,0.9-4.5,4-4c-1.1,3.5-3.4,6.8-7,5
		c-0.5,0.9-1.5,2.3-2.7,4h24.8c1.8-1.8,3.5-3.5,5-5c0.9,1.9,2.1,3.5,3.4,5h17.1c0.8-1,2.6-1.9,2.6-3c2,0.9,0,1.8-1.2,3h18.9
		c0.2-0.3,0.3-0.7,0.4-1c1.5-0.1,2.5,0.3,3.3,1h81.4c3.1-5,5.5-10.1,9.7-13.1c-0.3,1.8-5.3,3.9-2,6c6.3-3.7,14.1-15.7,12-21.1
		c-0.9,2.8-2.9,4.5-7,4c-0.6-7.4-8.3-7.8-9-15.1c3.8-0.2,5.1-2.9,7-5c-4.1,2.3-5.8-1.7-7-5c1.9-2.1,3.6-4.5,7-5c1.4,0.3,1.1,2.2,2,3
		c11.7,2.7,8-10.8,5-15.1C560.2,224.6,560.2,227.1,562.2,227.7z M299.2,219.6C297.1,216.4,304.2,214.8,299.2,219.6L299.2,219.6z
		 M301.2,222.6C297.7,217.9,306.3,218.6,301.2,222.6L301.2,222.6z M305.8,208c0-1.3-1.6-3.1-0.5-3.5c1.5,0.1,0.9,2.2,2.6,2.1
		C307.2,207.1,306.5,207.6,305.8,208z M323.3,204.6c-3-0.7,1-2.2,0-4c-2.6,0.8-4.3,2.4-5,5c-4.6-3.7,3.4-7.5,5-11
		C327.2,196.7,326.7,202.3,323.3,204.6z M337.4,196.6c-1.6-0.1,1-4.3,3-4C341.2,195.8,337.1,193.9,337.4,196.6z M344.4,216.6
		c-0.8-0.2-1-1-2-1c0.2-0.8,1-1,1-2c0.8,0.2,1,1,2,1C345.2,215.4,344.4,215.6,344.4,216.6z M345.4,190.5c-1.9-0.1,1.2-3.4,0-6
		c2.5-0.1,6.3-6.7,6-9c0.8,0.5,1.6,1,3,1c0.4,2.4-1.8,2.2-1,5c-6.4,1.2-5,7.6-6,12C343.7,194,347.8,188,345.4,190.5z M350.4,292.9
		c-2.4-2.1,2.5-5.5,4-7C357,288.2,350,289.4,350.4,292.9z M357.4,175.5c-1.4-2-1-4.7,1-7C361,169.8,357.7,173.6,357.4,175.5z
		 M361.4,244.7c0.1-2.6,1.5-3.9,4-4C365,243,363.7,244.3,361.4,244.7z M366.5,239.7c-2.2,0.5-1.4-1.9-3-2
		C363.9,235.2,367.3,237.6,366.5,239.7z M377.5,161.4c0.2-0.9-0.4-1-1-1c3.4-2.5,8.2,4.7,6,8c-3.3,0-3.8-2.8-4-6
		c-0.9,0.4-1.8,0.9-2,2C374.6,164.8,375,159.9,377.5,161.4z M377.5,133.3c0.8,1.6,3.2,1.5,3,4C379,136.5,377.3,135.8,377.5,133.3z
		 M374.5,226.7c3.4,0.9,0.9,2.2,0,4C371.5,230,375.5,228.5,374.5,226.7z M376.5,262.8c-3.1-1,1.2-2.7,1-4
		C380.6,259.8,376.4,261.5,376.5,262.8z M377.5,253.8c-2.5-0.4-0.1-3.9,2-3C379.2,252.1,377.7,252.3,377.5,253.8z M375.5,233.7
		c0.1-2.6,1.5-3.9,4-4c-1.7,3.8,0.6,1.6,1,5C377.4,235.8,377.9,235.2,375.5,233.7z M379.5,209.6c-1.9,2.2-5.6-2.3-6-5
		c1.4-1,4.8-4.1,4,1c1.6,0.5,1.6-5.5,0-5c2.4-2.3,5.1,5.7,5,4C386.9,209,373.5,207.7,379.5,209.6z M384.5,134.3
		c-4.2-1.2-6.3-4.4-7-9c0.8-0.2,1,0.4,1,1C381,126.6,387.5,128.8,384.5,134.3z M543.1,233.7c-1.3-0.4-1.6-1.8-3-2
		C540.5,229.2,544,231.6,543.1,233.7z M534.1,233.7c2.1,1.2,3.9,2.8,6,4c0.7,4.3-1.2,6.2-3,8c-2.6-1.4-4-4-7-5
		C529.9,236.8,534.7,238,534.1,233.7z M514,176.5c0.4,2.1-0.7,2.7-1,4C510.1,180.3,510.6,175.7,514,176.5z M507,169.4
		c-1.9,7.3-7.7-1.4-9-4C502.4,162,501.5,170.8,507,169.4z M499,141.3c2.7,1.5,4.5,3.9,3,7c-2.9-0.8-5.1-2.3-6-5
		C496.8,142.5,498.7,142.8,499,141.3z M493.9,200.6c2.1-0.4,2.7,0.7,4,1c-0.8,2.5-2.8,4-3,7c-2.7,0.7-2-2-4-2
		C491.3,204,493.9,203.6,493.9,200.6z M487.9,192.5c2.6,0.1,2,3.4,2,6c-1.8-0.9-1.7-3.7-4-4C486.2,193.5,487.9,193.9,487.9,192.5z
		 M480.9,145.4C486.8,146.7,477.3,150.1,480.9,145.4L480.9,145.4z M480.9,209.6c-1.7-0.4-1.9,0.8-2,2c-2.6-0.1-2.4-3.7-1-5
		C480.1,206.4,481.1,207.4,480.9,209.6z M481.9,213.6c-0.9-0.2-0.9,0.4-1,1c-1.2-0.2-0.9-1.8-1-3
		C481.6,211.2,481.8,212.4,481.9,213.6z M477.9,203.6c-0.4,1.6-3.2,0.9-2,4c-2.4,0.4-2.2-1.8-5-1c0.8-2.8-1.4-2.6-1-5
		C473.8,197.9,473.8,204.3,477.9,203.6z M470.9,220.6c-2.9-3.1-6.8-5.2-8-10c4.3,4.4,11.3,6.1,12.1,14c-4,0.3-2.1-5.2-4-7
		C469.4,218.1,471.3,218.9,470.9,220.6z M467.8,230.7c-3.2-0.1-2.2-4.5-4-6C465,223.4,470.3,227.7,467.8,230.7z M468.9,134.3
		c1.8,0.1,2.1-1.2,4-1c0.1,1.8-1.2,2.1-1,4c-1.6,0.3-1.7-1-3-1V134.3z M462.8,124.3c3.1-0.7,1.9,2.8,5,2c-0.6,2.4-1.3,4.7-4,5
		C463.1,129.1,460.8,126.3,462.8,124.3z M462.8,145.4c-0.4-2.1,0.7-2.7,1-4c-4,1.7-8.5-1.3-9-6c2.7,2.7,2.5-2.6,6-2
		C461.6,136.8,470.7,142.7,462.8,145.4z M453.8,161.4c-2.8-0.8-2.6,1.4-5,1c0.2-1.7-5.7-4-1-4v2c2.3-0.3,2.2-3.1,4-4
		c0.3-2-2.9,0.2-3,1c-2.4-0.3,1.2-2.7,1-4c1.9,2,3.7,0.3,6,0C454.9,155.8,453.5,157.7,453.8,161.4z M448.8,210.6
		c-2.6-1.3-3.1-3.3-2-6C449.1,205.1,450.9,208.5,448.8,210.6z M445.8,156.4c-5.4,0.5-3.4-2.5-3-6c1.2,0.3,6.2-0.2,3-1
		c-0.4-1.7,3.7,0.1,4,1C449.8,153.4,444.6,150.3,445.8,156.4z M438.7,169.4c-1.3,0.1,2.4-5.7,4-3
		C441.8,167.8,440.1,168.4,438.7,169.4z M440.7,169.4C446.6,170.8,437.1,174.2,440.7,169.4L440.7,169.4z M425.7,251.8
		c2.1-3.7,4.5-4.7,8-3c-1.2,1.5-0.9,4.5-4,4C432.3,248.3,428.6,251.3,425.7,251.8z M427.7,184.5c0.8-0.2,0.9,0.4,1,1
		c2.7,1.9-2.3-1.4-2,2c-1.2-0.2-0.9-1.8-1-3C426.6,185.1,427.5,185.7,427.7,184.5z M425.7,174.5c0.9-1.5,1.5-3.2,4-3
		C429.1,173.4,429.5,176.9,425.7,174.5z M431.7,181.5c-0.3-2.3,2.9-1.1,3-3C437.3,179.5,433.6,184.6,431.7,181.5z M434.7,166.4
		c0.2-1.2-0.2-1.8-1-2c0.8-0.8,3.5-0.7,5,0C438.5,166.2,437,166.7,434.7,166.4z M437.7,183.5c2.5,0.2,0.3,3.4,0,4
		C434.7,186.9,438.7,185.4,437.7,183.5z M443.8,117.3c3.2-0.9,2.1,2.6,4,3c2.7-0.9-0.8-3.7-2-4c1-3.1,2.7,1.2,4,1
		c-1.6-3.5-2.3-4.7,1-7c4.3-0.2,4.1,3.3,8,1c0.1,5.7,4.6,9.7,2,15.1c-4.5-1.5-5.5-6.5-10-8c4.1,4.9,9.1,10.4,3,16.1
		C452.6,130.3,437.8,125.3,443.8,117.3z M444.8,141.3c-0.9,2.7-2.2-2.3-4-2C442.2,136,443.6,141,444.8,141.3z M431.7,130.3
		c3.6,1.4,7.3,2.8,8,7c-7-5,3.3,8.4,4,8c0,4.5-5.3-2.2-4,5C431.2,146.9,421.4,138.6,431.7,130.3z M432.7,157.4c-0.7,1-2.3,1-2,3
		c-4.2-3.1-8.5-6.2-11-11c4,0,3.3,4.7,6,6c3-0.7-1-2.1,0-4C429.5,151.9,428.9,156.9,432.7,157.4z M421.7,170.5
		c-4-5-10.2-7.8-12.1-15.1c1.2,0.2,1.8-0.2,2-1c4.8,3.9,8.4,9,13.1,13C424.6,169.3,421.4,168.1,421.7,170.5z M418.7,211.6
		c-3.5-1.9-7.9-2.8-8-8h4c0.1,1.8-1.2,2.1-1,4c1.8,0.1,2.1-1.2,4-1c1.4,1.3,0.4,4.9,3,5c0.2,0.9-0.4,0.9-1,1c-0.9-0.2-0.9,0.4-1,1
		C417.2,213.2,418.8,212.7,418.7,211.6z M397.6,140.3c4.4-0.7,2.3,5,7,4c-0.1,2.5-1.5,3.9-4,4c-2.4-1.7-1-6.4-5-4
		C396.1,142.9,397.1,141.8,397.6,140.3z M392.6,135.3c2.7,0.6,3.9,2.8,4,6C392,141.7,391.4,138.1,392.6,135.3z M398.6,122.3
		c3.7,6,11.2,8.2,13.1,16.1C405.8,135.4,399.3,129,398.6,122.3z M411.6,162.4c-1.6,3.1-3.2-2.1-5-2
		C408.2,157.3,409.8,162.5,411.6,162.4z M406.6,99.2c4.7,1.4,9.9,2.2,11,7c-4.2,0.6,6.3,10.5,9,14.1c-2.1,3.6-6.1,5.3-7,10
		c-3.1-0.3-5.9-6.1-4-8c-0.2-2.6-1.7,1.4-4,0c-1.6-5.5-5-5.8-5-11c4.3-0.3,0.9-1,4-4c-0.9-1.1-2.2-0.7-4,0c0,1,1.2,0.8,2,1
		c-0.6,2-5.1,0.3-4,4c-1.8-0.9-3.1-2.2-4-4C401.2,103.8,405.8,103.4,406.6,99.2z M395.6,86.1c2,1.5-2,5.3-3,7c6,0.1,4.7-6.4,10-2
		c-1.3,4.7-6.5,5.5-8,10c-2.5-0.8-3.2-3.5-5-5C390.4,91.7,394.3,90.2,395.6,86.1z M389.6,117.3c4.2-1.3,6-0.1,7,4
		c-0.8,0.9-2.8,0.6-3,2C392.5,121,388.7,121.4,389.6,117.3z M392.6,216.6c-0.2,1.1-1,0.6-1,0c-1.4,0.6-2.4,1.6-3,3
		c-2.5-2,2.6-4.7,3-7C396.2,213.3,390,215.9,392.6,216.6z M396.6,191.5c0.2-3.7-4.3-2.2-6-8c0-3.1,2.1-3.9,3-6c1.5,4.5,9.6,7.8,8,12
		c-1.8,2.4,0.8-1.1-1-2C398.6,188.2,398.3,190.6,396.6,191.5z M402.6,225.7c-1,2.7-2.7,4.6-4,7C396,230.4,400.3,226.4,402.6,225.7z
		 M405.6,259.8c-1,0-0.8-1.2-1-2c-2.6-0.3-0.8,3.9-4,3c0.2-1.2-0.2-1.8-1-2c0-3,2.6-3.4,3-6C403.2,255.5,407.6,257.5,405.6,259.8z
		 M404.6,252.8c1.3,0.3,1.6,1.8,3,2C407.2,257.3,403.7,254.8,404.6,252.8z M406.6,202.6c-2.7,0.7-2-2-4-2c2.8-0.9,2.4-5,6-5
		C409.8,199.7,406.5,199.5,406.6,202.6z M403.6,163.4c4,0,8.8,7.9,12,12C410.5,172.5,408,167.1,403.6,163.4z M415.6,248.7
		c-2-2.7,1.6-2.9-4-2c-0.4-1.7-3-6.2-1-7c1.7-2.4-0.1,0.4,0,2c4.1-0.2,4.3-6.3,7.7-2.4c-1-1.5-0.9-4.4,0.4-5.6c1.7,1.6,2.9,3.8,4,6
		c0.9-0.5,1.8-0.9,2-2c2.8,0.2,0.4,5.7,4,5c-0.8,2.1-4.1,3.9-6,2c-0.7-2.7,2-2,2-4c-2.5-1.3-2.4,4.7-4,1
		C420.8,243.6,417.1,245.6,415.6,248.7z M422.7,249.8v-3C425.6,245.3,425.6,251.2,422.7,249.8z M424.7,251.8c-0.4,1.3-1.8,1.6-2,3
		c-1.2-0.2-0.9-1.8-1-3H424.7z M421.7,245.7c0.4,1.7-0.8,1.9-2,2c2.8,1.4,1.2,2.5,0,5C419.2,252.7,416.7,245.2,421.7,245.7z
		 M433.7,292.9c-7.5-1.8-10.8-7.9-14.1-14.1c2.1-0.4,2.7,0.7,4,1c-0.4-0.9-0.9-1.8-2-2c1.9-1.4,3-3.7,4-6c0.9,0.8,2.3,1.1,4,1
		c-0.5,3.6,6.4,5,3,8c0,2.4,2.7-0.4,2-2c2.1,1.2,2.8,3.9,5,5C438.5,287.6,434.2,288.4,433.7,292.9z M448.8,269.8
		c-3.8-2.2-5.4-6.6-9-9c0.8,0.9-0.6,10.9,3,8c1.2,0.2,0.8,1.8,1,3c-0.8-0.2-1,0.4-1,1c-3.8-1.9-4.8-6.6-10-7c0.1-2.6,1.5-3.9,4-4
		c-0.7,2.7,2.1,1.9,3,3c0.2-2.5-1.5-3.1-3-4c1.5-1.8,3.2-3.5,4-6c0.8,0.5,1.6,1,3,1c-2.3,7,3.6,2.2,3,10c2-0.6,2-3,4-1
		C452.2,268.6,448,266.7,448.8,269.8z M453.8,203.6c-2-0.7-2.7-2.7-3-5c2.7,0.3,3.5,2.5,6,3C456.6,203,453.8,201.9,453.8,203.6z
		 M459.8,221.6c-1.5-0.9-3.2-1.5-3-4h3V221.6z M461.8,191.5c-1.6-1.5-5.4,1.2-5-4c0.9,0.5,1.8,0.9,2,2c1-0.7,1-2.3,3-2V191.5z
		 M467.8,288.9c-2-3-7-5-5-9C464.9,282.3,469.7,285.8,467.8,288.9z M466.8,239.7c1.1-4.1,3.1,1.1,6,1
		C471,244.1,469.3,239,466.8,239.7z M472.9,237.7c-0.7-3.1-0.7-1.9,0-5c3.2-0.5,2.7,2.7,5,3C477.7,237.9,475.4,237.9,472.9,237.7z
		 M478.9,248.7c4.8-0.6,3.2,5.2,4,6C481,257.4,476.4,250.6,478.9,248.7z M479.9,192.5c3.4,2,5.2-3.4,3-1c-3.8-2,3.5-2.9,4-1
		c-0.6,2.4-4.4,1.7-3,6C481.4,196.4,480,195.1,479.9,192.5z M485.9,211.6c2.3-0.8,0,7.8,2,4c2.2-2.4-0.5,2.1,0,4
		C483.2,219.3,483.7,214.1,485.9,211.6z M487.9,286.9c-0.6-2.2,1.9-1.4,2-3C492.4,284.3,490,287.8,487.9,286.9z M490.9,230.7
		c-0.4-4.8,3.8-4.9,4-9c2,0.3,2,2.7,4,3C494.3,226.7,494.5,229.1,490.9,230.7z M500,230.7c3.1,2.2,2.3,2.3,3,6c-2-1-1.6-4.4-5-4
		c-0.2,2.5,2.2,2.4,3,4c-1,1.9-4-2.6-6-3c0.6-2.7,4.2-2.5,4-6c2.2-0.6,1.4,1.9,3,2c1,0,0.8-1.2,1-2
		C505.7,228.6,502.5,231.7,500,230.7z M507,215.6c-1.9-1.5-5.2-4.5-3-7c2.7,1.8,1,4,4,4C510.7,214.5,505.3,210.9,507,215.6z
		 M511,246.7c2.9,0.4,4.6,2.1,5,5C513.1,251.3,511.5,249.6,511,246.7z M512,221.6c0.2-1.2,1.8-0.8,3-1c-0.9-2.4-7.3,0.6-6-4
		c1.2,0.2,1.8-0.2,2-1c1.1,0.2,0.5,1,0,1c0.3,1.4,2.5,0.8,4,1c-0.3-1.3-1.8-1.6-2-3c-0.6-2.7,2.8,4.4,4,4
		C516.6,221.2,513.6,223.2,512,221.6z M521,196.6c3,1,3.2,4.9,6,6c-1.8,4.5-6.6-0.9-9-2C518.3,198.5,520,197.9,521,196.6z
		 M523.1,211.6c-2.2,0.6-1.4-1.9-3-2c0.2-1.2,1.8-0.8,3-1V211.6z M524.1,233.7c0.8-0.9,1.1-2.3,1-4c1.4-0.4,3.5,1.7,3.7,1.8
		c0-0.1-0.2-0.3-0.7-0.8c3-1.7,2.8,3.1,1,6C525.3,237.8,527.5,232.9,524.1,233.7z M525.1,273.8c4.7-0.6,11.9,4.8,14.1,10
		C534.8,287.6,530.5,275.4,525.1,273.8z M547.1,275.9c-2,4.5-7.8,8.5-9,1c4.6-0.5,3.8-4.3,3-8C543.9,270.4,546.6,272.1,547.1,275.9z
		 M546.1,249.8c-0.4,1.2-1.3,2.1-3,2C542.7,249.6,544.6,249.8,546.1,249.8z M557.2,209.6h3v3C558,212.8,557,211.8,557.2,209.6z"/>
	<path class="st0" d="M311.3,193.5c2.2-4.8,7.7-6.3,10-11C321.6,185.9,315.6,191.5,311.3,193.5z"/>
	<path class="st0" d="M386.5,83.1c2.7-1.2-2.5,2.4-3,3C378.4,92.5,380.3,89.5,386.5,83.1z"/>
	<path class="st0" d="M372.5,91.2c1.7,0.2-0.5,4.8-3,4C369.8,93.1,372.2,93.2,372.5,91.2z"/>
	<path class="st0" d="M318.3,127.3c1.3,0,2.7,0,4,0c-1.2,4.6,5.8,4.2,6,10C324.9,134.1,321.2,131.1,318.3,127.3z"/>
	<path class="st0" d="M359.4,140.3c-1.2,3.2,3.2,0.8,2,4c-2.1,2.1-3.8-1.3-5-3c-3,0.7,1,2.1,0,4c-0.8-1.6-3.2-1.5-3-4
		C355.8,141.4,356.4,139.6,359.4,140.3z"/>
	<path class="st0" d="M294.2,181.5C298.6,176.3,290.5,185.8,294.2,181.5L294.2,181.5z"/>
	<path class="st0" d="M290.2,184.5C286.8,182.4,296,188.1,290.2,184.5L290.2,184.5z"/>
	<path class="st0" d="M281.1,200.6c1.1-3.3,9.4-12.9,6-11c-6.6,6.4-14.9,11.2-18.1,21.1c0.5,1.5,1.5,2.5,2,4c3.2,0.6,3.1-1.9,5,0
		c0.6-7.2,11.2-14.7,10-17.1C285.2,199.3,284.3,201,281.1,200.6z M279.1,205.6c-2.5-1,0.8-4.4,3-4
		C283,204.8,278.8,202.9,279.1,205.6z"/>
	<path class="st0" d="M555.2,260.8c3,0.9-2.3,1.5-1,4c-1.4-0.3-0.8-2.5-1-4C554.1,261.4,555,262,555.2,260.8z"/>
</g>
<path class="st1" d="M352.9,333.8l11.3-25.8l36.1-98.5c0,0,0-13.3-1.3-19.9c-1.3-6.6-30.5-49.8-30.5-49.8s-2.8-9.9,2.4-22.3
	s13.8-29.9,13.8-29.9l15.9-4.9l8.4-11l11.4-1.8c0,0,9.6,2.1,9.7,2.3c0.1,0.3,5.9,8.1,5.9,8.1l0.6,2.6l5.8-7.1l5.5-0.2l4.9,0.2
	l7.1,2.6l5.2,5.8c0,0,2.6,5.8,2.6,6.5c0,0.6,0,1.8,0,1.8l8.4-0.5l9.7,2.6c0,0,3.1,4.6,3.8,5.2c0.7,0.6,1.4,5.2,1.4,5.2v2l6.5-2
	c0,0,5.8,0,6.5,0c0.6,0,3.9,3.9,3.9,3.9l5.8,4.5c0,0,1.9,5.8,1.9,6.5c0,0.6-1.3,21.4-1.3,21.4s-2.6,15.6-7.8,27.9
	c-5.2,12.3-22.7,46.8-22.7,46.8s-51.4,116-52,118C431.4,336.1,352.9,333.8,352.9,333.8z"/>
<path d="M516.6,116.5c-0.2-5.9-0.6-10.1-5.4-14.1c-3.4-2.9-7-6-12.2-5.9c-2.6,0-4.8,0.8-6.6,1.8c0-0.1,0-0.2,0-0.3
	c0.2-9.5-7.8-13.8-15.3-14.7c-2.8-0.3-5.8-0.1-8.6,0.7c-0.2-2.8-1-5.4-2.3-7.7c-5.4-9.3-17-9.2-18.3-9.2c-1.9,0-5.1,0.1-8.4,2.2
	c-1.5,1-2.6,2.1-3.5,3.4c-0.6-2.2-1.6-4.5-3.5-6.5c-6.7-7.4-17.4-4.5-19.4-3.9c-5.8,1.8-9.3,5.9-10.5,7.6c-1.3,1.8-2.3,3.7-3,5.8
	c-0.1,0.3-7.1,0.9-7.8,1c-4.8,0.6-8.2,3.5-11.2,7.1c-4.4,5.4-7.5,11.7-10.1,18.1c-1.3,3.2-2.6,6.5-3.8,9.7
	c-1.3,3.4-2.9,6.8-3.7,10.3c-0.4,1.9-0.5,3.8-0.2,5.7c0.3,2.8,1.3,5.6,2.4,8.2l0.1,0.3c2,3.4,4,6.8,6.1,10c1.2,1.9,2.3,3.7,3.5,5.5
	c0.7,1,1.3,2.1,1.9,3.1c0.5,0.7,0.9,1.5,1.4,2.3c0.6,1,1.2,2.1,1.8,3.1c1.7,3,3.6,5.8,5.5,8.6c1,1.5,2,3,3,4.5
	c0.2,0.3,0.4,0.7,0.6,1c2.4,4.3,4.6,8.8,6.5,13.5c0.8,2.4,1.5,4.9,1.9,7.4c0,0.1,0,0.2,0,0.3c0.1,4.1-1.3,8.5-2.5,12.5
	c-3.7,10.4-29.2,81.2-32.7,91.1c-1,2.7-14.5,32.2-15.5,34.9c0.6,0,4.2-0.5,6,0c1.1-3.1,12.9-30.9,14-34c3.5-9.8,29.2-79.9,32.9-90.4
	l0-0.1c0.9-2.9,1.9-6.2,2.4-9.7c0.1,0.1,0.1,0.2,0.2,0.3c0.8,0.9,1.7,1.8,2.7,2.6c1,0.8,2.1,1.4,3.2,2c2.3,1.1,4.8,1.6,7.2,1.7
	c2.4,0.1,4.8-0.2,7-0.9c2.2-0.6,4.4-1.5,6.3-2.8c-1.1,0.1-2.2,0.2-3.3,0.3c-1.1,0.1-2.2,0.1-3.3,0.1c-2.1,0-4.2-0.2-6.2-0.6
	c-4-0.8-7.4-2.7-9.9-5.6c-1.8-2.1-3.3-4.7-4.7-7.5c-0.1-0.3-0.2-0.5-0.3-0.8c-0.5-1.3-0.9-2.5-1.4-3.7c0.3,0.2,0.6,0.5,0.9,0.7
	c0.7,0.5,1.4,0.9,2.1,1.3c0.4,0.2,0.7,0.4,1.1,0.6l1.2,0.5c0.7,0.4,1.6,0.6,2.3,0.9c0.8,0.3,1.6,0.4,2.4,0.6
	c3.2,0.7,6.4,0.8,9.6,0.4c6.3-0.7,12.2-2.7,17.4-5.8c-6,0.8-11.9,1.6-17.5,1.3c-2.8-0.1-5.6-0.5-8.2-1.2c-2.6-0.7-5-1.8-7.1-3.3
	c-1-0.7-2.1-1.7-3.1-2.6c-1-1-2.1-2-3.1-3c-0.7-0.7-1.3-1.4-2-2c-1.3-1.4-2.5-2.8-3.8-4.2c-0.1-0.1-0.1-0.1-0.1-0.2
	c-0.2-0.2-0.4-0.5-0.5-0.7c0,0,0-0.1-0.1-0.1c-0.6-1.1-1.3-2.2-2-3.3c-2.7-4.5-5.6-8.9-8.6-13.4c-2.6-4-5.2-7.9-7.7-12
	c-2.3-3.8-4.4-7.3-4.4-11.9c0-4.6,1.6-9.1,3.2-13.4c1.7-4.6,3.7-9.1,5.9-13.5c2.9-5.9,5.5-14.4,11.4-18.1c0.7-0.5,1.5-0.8,2.2-1
	c0.3,0.4,0.6,0.8,0.9,1.2c0.6,1,1,2.1,1.2,3.3c0.1,0.6,0.1,1.2,0.1,1.8c0,0.6-0.1,1.2-0.2,1.8c-0.2,1.2-0.5,2.5-1,3.8
	c1.1-0.8,2-2,2.6-3.4c0.3-0.7,0.5-1.4,0.6-2.1c0.1-0.7,0.1-1.5,0-2.3c-0.2-1.5-0.9-2.9-2-4c-0.2-0.2-0.4-0.4-0.6-0.6
	c2.3-0.4,4.8-0.2,7.1-0.2c6.5,0.2,13,0.9,19.4,1.6c3.3,0.4,6.5,0.9,9.9,1.5c0.1,0,0.3,0,0.4,0.1c0.6,0.1,1.1,0.2,1.7,0.3
	c1,0.1,1.9,0.3,2.9,0.4c0.6,0.1,1.2,0.2,1.8,0.4c4.6,1.1,5.4,5.7,4,9.5c-1.9,0-3.9,0-5.8,0c-1.4,0-2.8-0.1-4.1-0.3
	c-1.4-0.1-2.7-0.4-3.9-0.8c-0.7-0.3-1.4-0.7-2-1.2c0,0-0.1-0.1-0.1-0.1c-0.2-0.2-0.5-0.4-0.7-0.7c-0.1-0.1-0.2-0.2-0.2-0.3
	c-0.8-1.1-1.2-2.4-1.5-3.8c-0.2,1.4-0.1,2.9,0.6,4.3c0.1,0.2,0.2,0.5,0.4,0.7c0.3,0.4,0.6,0.9,1,1.2c0.5,0.6,1.2,1,1.9,1.4
	c1.4,0.7,2.9,1,4.3,1.3c1.4,0.2,2.9,0.4,4.3,0.4c1.6,0.1,3.3,0,4.9-0.1c-2.4,4-6.1,7.7-10.3,9.7c-2.9,1.4-6.1,2.2-9.3,2.6
	c-3.4,0.5-6.6,1.2-9.9,1.3c-3.3,0.2-6.6-0.3-9.5-1.8c-0.3-0.2-0.7-0.3-1-0.5c0,0,0,0,0,0c-0.2-0.1-0.5-0.3-0.7-0.4
	c-2.3-1.4-4.4-3.2-6.1-5.2c0.5,0.6,0.9,1.2,1.4,1.8c-0.6-0.7-1.1-1.3-1.4-1.8c0.7,1.5,2.1,4,4.7,6.2c0.8,0.7,1.7,1.3,2.5,1.8
	c0.4,0.3,0.9,0.5,1.3,0.7c1.5,0.7,3,1.2,4.2,1.5c0.3,1.2,0.4,2.3,0.2,3.3c-0.2,1.4-0.7,2.7-2,4.5c-3.1,4.4-8.1,7.6-10.2,8.8
	c5.3,0,8.1-1.6,9.8-3.2c1.8-1.7,2.7-3.7,5-5.3c0,0,0,0,0,0c0.1,3.3-0.5,6.5-1.5,9.7c-1,3.2-2.5,6.4-4.3,9.5c3.2-1.9,5.6-4.9,7.4-8.2
	c1.7-3.4,2.7-7.2,2.7-11.1c0-0.6,0-1.1-0.1-1.6c0.3-0.1,0.6-0.1,1-0.1c3.3-0.3,11.9-1.7,13.6,2.4c0.8,1.9,2,3.5,3.7,4.8
	c3.1,2.5,6.2,4,9.1,4.6c1.3,0.3,2.6,0.3,3.8,0.1c0.6-0.1,1.2-0.2,1.7-0.4c0,0,0.1,0,0.1,0l0.1,0.1c4.4,3.7,7.9,8.5,9.3,14.3
	c2.6,10.2-1.9,19.4-4.4,23.8c1.9-2,5.2-6.1,7.1-12.2c1.7-5.7,1.3-10.6,0.9-13.2c0.2,0,0.3,0,0.5,0c1.1,0,2.1,0.2,2.9,0.5
	c0.5,0.2,1,0.4,1.5,0.6c6.7,3.6,8.9,15.8,5.6,30.4c1.7-3.5,4.4-10.3,4-19c-0.2-4.2-1.1-7.7-2-10.3c1.4,0.4,3.4,0.8,5.8,0.7
	c1.6,0,3-0.2,4.2-0.4c1.1,0.9,3.3,2.3,6.3,2.9c0.9,0.2,1.8,0.2,2.9,0.2c4.8-0.2,9.4-3.1,11.9-7.7c0.9-0.9,1.8-1.7,2.5-2.5
	c3.1-2.9,4.4-3.7,6.1-3.8c0.6-0.1,1.2,0,1.7,0.1c-1.4,8.6-3.9,15.6-7.8,25c-4.7,11.3-7.8,17.5-11.1,24.2c-1.7,3.3-3.3,6.7-5.3,10.9
	c-2.6,1.1-5.3,1.8-8.2,1.9c-4.1,0.2-8.4-0.9-12.7-2.8c3.1,3.5,7.5,6,12.5,6.7c1.9,0.2,3.8,0.2,5.7-0.1c-0.2,0.5-0.5,1-0.7,1.5
	c-3.2,7.1-34.9,80.4-40.8,97.9c-1.9,5.6-1.8,5.1-3.4,10.9c1.4-0.5,3.5-0.1,3.4,0c1.4-4.8,1.8-5,3.4-9.7
	c5.8-17.3,37.4-90.5,40.6-97.6c3.5-7.8,6.1-13,8.6-18c3.3-6.7,6.5-13,11.2-24.4c4.4-10.6,7-18.3,8.4-28.5
	C516.4,127.4,516.7,121.9,516.6,116.5z M403.6,75.5c0.5-1.2,1.1-2.3,1.9-3.4c0.9-0.4,1.8-0.7,2.7-1c1.9-0.6,3.8-1.1,5.7-1.6
	c1.9-0.4,3.8-0.7,5.8-0.8c2-0.2,4-0.2,6.1-0.3c-1.9-0.8-4-1.3-6.1-1.4c-2.1-0.2-4.2,0-6.3,0.4c-1.9,0.4-3.8,1.1-5.6,1.9
	c1.5-1.4,3.6-2.9,6.4-3.7c1.7-0.5,10.5-2.9,15.7,2.9c3,3.3,3.3,7.6,3,10.3C423.3,76.2,413.5,75.1,403.6,75.5z M441.7,127.4
	c-1,0.1-2.1-0.1-3.4-0.5c-2.1-0.7-4.3-1.9-6-3.5c-2.1-1.9-3.5-4.4-3.2-7.4l0.6-7.2l-0.1,0c0.1,0,0.2-0.1,0.2-0.1
	c4-1.7,7.5-4.7,10.3-8.1c2.5-3.1,6.1-7.6,5.6-11.8c-0.2-2-1.3-3.8-2.8-5.2c-0.9-0.9-2-1.6-3.2-2.2c-0.3-0.1-3.2-1.4-3.2-1.4
	c0.3-1.8,1.4-5.6,4.8-7.9c2.4-1.5,4.8-1.6,6.5-1.7c0.4,0,10.7-0.2,15.2,7.4c1.1,1.9,1.7,4.1,1.8,6.5c-0.3-1.1-0.7-2.2-1.3-3.2
	c-1.2-2.2-3.1-4-5.2-5.3c-2.1-1.3-4.5-2.1-7-2.3c-2.5-0.2-5,0.2-7.1,1.4c2.4-0.3,4.6-0.3,6.8,0.3c2.2,0.5,4.3,1.4,6.1,2.5
	c1.9,1.1,3.6,2.6,4.9,4.3c0.9,1.2,1.6,2.5,2.2,3.9c-2.5,5.6-4.7,11.4-6.7,17.1c-2.1,5.9-3.8,12-7.4,17.3c-0.7,0.9-1.3,1.9-2,2.7
	C446.5,125.5,444.4,127.2,441.7,127.4z M476.8,129.1c-1.9,3.4-4.9,7.3-8.9,8.7c-2.4,0.9-4.9,0.7-7.6-0.6c-1.6-0.8-3-1.9-4.1-3.3
	c-0.6-0.8-1.2-1.7-1.7-2.7c-0.3-0.5-0.5-1-0.6-1.6c-1-2.9-0.8-5.5-0.5-7.1c3.5-5.1,5.2-10.2,6.9-15.4c0.3-0.8,0.5-1.6,0.8-2.4
	c1.9-5.6,4.1-11.2,6.6-16.8c3-1.1,6.1-1.5,9.1-1.1c2.9,0.3,12.1,2.1,12.2,10.8c0,0-0.1-0.1-0.1-0.1c-1-1.9-2.5-3.6-4.3-4.9
	c-1.8-1.3-3.9-2.2-6-2.6c-2.1-0.4-4.4-0.3-6.4,0.3c2.1,0.2,4.1,0.6,6,1.3c1.9,0.7,3.6,1.6,5.2,2.7c1.6,1.1,3,2.5,4.2,4.1
	c0.4,0.6,0.9,1.2,1.3,1.9c-0.6,4.2-2.6,8.4-4.1,11.4c-1.4,2.7-2.5,5.6-3.6,8.4c-0.7,1.7-1.4,3.5-2.1,5.2
	C478.3,125.9,477.5,127.3,476.8,129.1z M512.6,113c-0.6-1.3-1.4-2.6-2.4-3.7c-0.8-1-1.8-1.9-2.7-2.6c-1-0.7-2.1-1.5-3.3-1.9
	c-2.5-0.9-5.3-0.4-7.3,0.9c2.4-0.5,4.8-0.4,6.7,0.6c1,0.5,1.8,1.2,2.7,2c0.9,0.8,1.7,1.5,2.4,2.4c1.3,1.5,2.3,3.1,3,4.9
	c-3.6,8.1-11.2,20.3-12.7,22.7l-0.1,0.2c-1.8,4-5.5,6.7-9.4,6.9c-4.2,0.1-7.2-2.7-7.3-2.8c-0.4-0.4-1.6-1.7-2.4-3.7
	c-1.1-2.9-0.6-5.9,0.2-8.1c0.6-1,1.1-2,1.5-2.8c1-2.1,1.9-4.4,2.7-6.5c1.1-2.7,2.2-5.5,3.5-8c1.4-2.8,3.2-6.5,4.1-10.6l0.1,0.1
	c1.5-1.3,4-2.8,7.1-2.8c3.9,0,6.6,2.3,9.8,5.1c2,1.7,3.3,2.9,3.8,4.7C513,111,512.8,112.1,512.6,113z"/>
<polygon class="st2" points="356,314 123.7,314 123.7,207.4 397,202 390,223 "/>
<path d="M223.4,226.1l10.3,69.3h-18.4l-1-12.5h-6.4l-1.1,12.5h-18.6l9.2-69.3H223.4z M213.9,270.6c-0.9-7.8-1.8-17.5-2.7-29.1
	c-1.8,13.3-3,23-3.5,29.1H213.9z"/>
<path d="M278.8,256.2h-18v-12c0-3.5-0.2-5.7-0.6-6.6c-0.4-0.9-1.2-1.3-2.5-1.3c-1.5,0-2.4,0.5-2.8,1.6c-0.4,1.1-0.6,3.3-0.6,6.8
	v32.2c0,3.4,0.2,5.6,0.6,6.6c0.4,1,1.3,1.5,2.7,1.5c1.3,0,2.2-0.5,2.6-1.5c0.4-1,0.6-3.4,0.6-7.3v-8.7h18v2.7
	c0,7.2-0.5,12.3-1.5,15.3c-1,3-3.3,5.6-6.7,7.9c-3.5,2.3-7.7,3.4-12.8,3.4c-5.3,0-9.6-1-13.1-2.9c-3.4-1.9-5.7-4.6-6.8-7.9
	c-1.1-3.4-1.7-8.5-1.7-15.3v-20.2c0-5,0.2-8.7,0.5-11.2c0.3-2.5,1.4-4.9,3.1-7.2c1.7-2.3,4.1-4.1,7.1-5.5c3-1.3,6.5-2,10.4-2
	c5.3,0,9.7,1,13.1,3.1c3.5,2.1,5.7,4.6,6.8,7.7c1.1,3.1,1.6,7.8,1.6,14.3V256.2z"/>
<path d="M321.6,226.1v13.9h-10.7v55.4h-18v-55.4h-10.7v-13.9H321.6z"/>
<path class="st3" d="M423.9,242c0,0,0.9-3.4-3.6,15.3c-2.2,9.3-1.3,16.1-3.9,27.9"/>
<polygon class="st4" points="661.4,334.3 372.9,334.3 404.3,227.7 661.4,227.7 "/>
<path d="M462.8,245.2v63.5h-14.5l-8.6-28.9v28.9h-13.8v-63.5h13.8l9.3,28.6v-28.6H462.8z"/>
<path d="M509.9,282.8c0,6.4-0.2,10.9-0.5,13.5c-0.3,2.7-1.2,5.1-2.8,7.3c-1.6,2.2-3.7,3.9-6.4,5.1c-2.7,1.2-5.8,1.8-9.4,1.8
	c-3.4,0-6.4-0.6-9.2-1.7c-2.7-1.1-4.9-2.8-6.5-5c-1.6-2.2-2.6-4.6-2.9-7.3c-0.3-2.6-0.5-7.2-0.5-13.7v-10.9c0-6.4,0.2-10.9,0.5-13.5
	c0.3-2.7,1.2-5.1,2.8-7.3c1.6-2.2,3.7-3.9,6.4-5.1c2.7-1.2,5.8-1.8,9.4-1.8c3.4,0,6.4,0.6,9.2,1.7c2.7,1.1,4.9,2.8,6.5,5
	c1.6,2.2,2.6,4.6,2.9,7.3c0.3,2.6,0.5,7.2,0.5,13.7V282.8z M493.4,261.9c0-3-0.2-4.8-0.5-5.7c-0.3-0.8-1-1.2-2-1.2
	c-0.9,0-1.5,0.3-2,1c-0.5,0.7-0.7,2.6-0.7,5.9v29.6c0,3.7,0.2,6,0.5,6.8c0.3,0.9,1,1.3,2.1,1.3c1.1,0,1.8-0.5,2.2-1.5
	c0.3-1,0.5-3.4,0.5-7.1V261.9z"/>
<path d="M582.1,246.3l-7.4,63.5h-20.6c-1.9-9.8-3.6-20.9-5-33.3c-0.7,5.3-2.2,16.4-4.6,33.3H524l-7.4-63.5h16l1.7,22.2l1.7,21.4
	c0.6-11.1,2.1-25.6,4.6-43.6h17.1c0.2,1.9,0.8,8.8,1.8,20.9l1.8,24.2c0.9-15.4,2.5-30.4,4.6-45.1H582.1z"/>
</svg>
